# xmcd CD database file
#
# Track frame offsets:
#	150
#	18420
#	43910
#	63082
#	81780
#	103642
#	126622
#	146280
#	168277
#	183340
#
# Disc length: 2707 seconds
#
# Revision: 3
# Processed by: cddbd v1.5.2PL0 Copyright (c) Steve Scherf et al.
# Submitted via: CDex 1.51
#
DISCID=820a910a
DTITLE=BAD MOON RISING - BLOOD
DYEAR=1993
DGENRE=Hard Rock
TTITLE0=Dangerous Game
TTITLE1=Servants Of The Sun
TTITLE2=Devil's Son (While Our Children Cry)
TTITLE3=Blood On The Streets
TTITLE4=Tears In The Dark
TTITLE5=Heart Of Darkness
TTITLE6=Chains
TTITLE7=Till The Morning Comes
TTITLE8=Time Will Tell
TTITLE9=Remember Me
EXTD=pony conyon (japan):1993\n\nguitar-doug aldrich\nvocals-kal swan YEAR: 1993
EXTT0=
EXTT1=
EXTT2=
EXTT3=
EXTT4=
EXTT5=
EXTT6=
EXTT7=
EXTT8=
EXTT9=
PLAYORDER=
